# xmcd CD database file
#
# Track frame offsets:
#	150
#	31268
#	46171
#	71100
#	107670
#	126144
#	153785
#	191330
#	208518
#	230554
#	249569
#	265980
#
# Disc length: 3915 seconds
#
# Revision: 2
# Processed by: cddbd v1.5PL3 Copyright (c) Steve Scherf et al.
# Submitted via: CDex 1.40Beta9
#
DISCID=9f0f490c
DTITLE=Hippy Collection - Sexy Me Blues
DYEAR=2004
DGENRE=Blues
TTITLE0=JVB Band - Stormy Monday Blues
TTITLE1=Chris Thomas - Me, My Guitar and The Blues
TTITLE2=Gene Deer - Living With the Blues
TTITLE3=Tino Gonzales - Midnight Blues
TTITLE4=Alex Harvey - Gamblin' Bar Room Blues
TTITLE5=Michael Miller - Bringing Home The Blues
TTITLE6=Gajan Edwards - Woman Blues
TTITLE7=David A, Coe - Masterbation Blues
TTITLE8=Mick Clarke - Gypsy Blues
TTITLE9=Rocky Athas and Jim Dandy - Dark Purple Blues
TTITLE10=Heikki Silvennoinen - Outside Woman Blues
TTITLE11=Phil Keaggy - Blues
EXTD=YEAR: 2004 ID3G: 0
EXTT0=
EXTT1=
EXTT2=
EXTT3=
EXTT4=
EXTT5=
EXTT6=
EXTT7=
EXTT8=
EXTT9=
EXTT10=
EXTT11=
PLAYORDER=
